<?xml version="1.0" standalone="no"?>
<!DOCTYPE svg PUBLIC "-//W3C//DTD SVG 20010904//EN"
 "http://www.w3.org/TR/2001/REC-SVG-20010904/DTD/svg10.dtd">
<svg version="1.0" xmlns="http://www.w3.org/2000/svg"
 width="74.000000pt" height="82.000000pt" viewBox="0 0 74.000000 82.000000"
 preserveAspectRatio="xMidYMid meet">

<g transform="translate(0.000000,82.000000) scale(0.100000,-0.100000)"
fill="#000000" stroke="none">
<path d="M353 773 c9 -2 25 -2 35 0 9 3 1 5 -18 5 -19 0 -27 -2 -17 -5z"/>
<path d="M300 729 c0 -5 -7 -6 -15 -3 -8 4 -15 2 -15 -4 0 -16 30 -23 36 -9 3
9 16 12 34 9 18 -2 30 0 30 7 0 6 -16 10 -35 9 -19 -1 -35 -5 -35 -9z"/>
<path d="M485 700 c4 -6 11 -8 16 -5 14 9 11 15 -7 15 -8 0 -12 -5 -9 -10z"/>
<path d="M335 693 c-88 -16 -171 -70 -210 -136 -31 -54 -43 -125 -24 -138 22
-14 29 -11 29 11 0 12 -7 20 -16 20 -11 0 -14 5 -10 16 3 9 6 18 6 21 0 3 6 0
14 -6 11 -9 15 -8 20 5 4 9 0 22 -8 28 -9 7 -11 18 -6 31 7 18 8 19 15 3 4
-10 11 -18 15 -18 14 0 21 32 10 45 -7 9 -6 16 5 25 12 10 15 10 15 -4 0 -22
13 -20 35 4 10 11 26 22 37 26 11 3 17 12 14 20 -3 7 4 18 14 24 22 12 27 1 9
-17 -9 -9 -7 -11 7 -8 11 2 24 4 31 4 7 1 10 7 7 15 -3 9 2 16 13 18 10 2 14
6 8 9 -5 3 -19 4 -30 2z m-95 -63 c-6 -11 -15 -18 -21 -14 -6 4 -6 11 2 20 17
21 31 17 19 -6z"/>
<path d="M114 668 l-19 -23 23 19 c12 11 22 21 22 23 0 8 -8 2 -26 -19z"/>
<path d="M190 675 c0 -8 4 -15 10 -15 5 0 7 7 4 15 -4 8 -8 15 -10 15 -2 0 -4
-7 -4 -15z"/>
<path d="M377 675 c-10 -24 -9 -25 13 -25 11 0 20 7 20 15 0 8 6 15 13 15 21
0 28 -12 17 -25 -8 -9 -6 -15 6 -19 10 -4 21 0 28 9 10 14 13 14 31 1 20 -15
20 -15 0 -16 -18 0 -18 -1 -2 -17 14 -14 19 -15 26 -5 4 7 15 10 24 6 21 -8
22 -24 2 -24 -9 0 -12 -6 -8 -16 4 -10 13 -14 28 -10 15 4 25 1 29 -10 9 -22
8 -24 -9 -18 -17 7 -19 -4 -6 -25 5 -7 13 -11 19 -7 6 3 15 -2 21 -11 16 -27
13 0 -4 40 -32 78 -114 142 -197 153 -37 5 -46 3 -51 -11z"/>
<path d="M170 666 c0 -8 4 -17 9 -20 5 -4 7 3 4 14 -6 23 -13 26 -13 6z"/>
<path d="M355 630 c3 -5 14 -10 23 -10 15 0 15 2 2 10 -20 13 -33 13 -25 0z"/>
<path d="M308 623 c7 -3 16 -2 19 1 4 3 -2 6 -13 5 -11 0 -14 -3 -6 -6z"/>
<path d="M410 626 c0 -2 7 -7 16 -10 8 -3 12 -2 9 4 -6 10 -25 14 -25 6z"/>
<path d="M255 600 c-3 -5 -2 -10 4 -10 5 0 13 5 16 10 3 6 2 10 -4 10 -5 0
-13 -4 -16 -10z"/>
<path d="M210 565 c-11 -13 -10 -14 4 -9 9 3 16 10 16 15 0 13 -6 11 -20 -6z"/>
<path d="M176 525 c-3 -8 -1 -15 4 -15 6 0 10 7 10 15 0 8 -2 15 -4 15 -2 0
-6 -7 -10 -15z"/>
<path d="M550 526 c0 -8 4 -17 9 -20 5 -4 7 3 4 14 -6 23 -13 26 -13 6z"/>
<path d="M341 522 c-6 -2 -9 -8 -5 -13 3 -5 -4 -9 -16 -9 -17 0 -19 -4 -14
-27 9 -39 16 -44 65 -46 40 -2 44 0 47 23 2 14 8 30 13 36 6 8 0 13 -22 18
-16 3 -28 9 -25 14 5 8 -23 11 -43 4z"/>
<path d="M155 470 c-3 -5 -1 -10 4 -10 6 0 11 5 11 10 0 6 -2 10 -4 10 -3 0
-8 -4 -11 -10z"/>
<path d="M607 474 c-9 -9 5 -44 15 -38 6 4 14 0 19 -7 12 -21 22 -3 10 19 -11
20 -35 34 -44 26z"/>
<path d="M3 405 c0 -22 2 -30 4 -17 2 12 2 30 0 40 -3 9 -5 -1 -4 -23z"/>
<path d="M676 421 c-4 -5 -2 -12 3 -15 5 -4 12 -2 15 3 4 5 2 12 -3 15 -5 4
-12 2 -15 -3z"/>
<path d="M46 412 c-3 -6 -1 -14 5 -17 15 -10 25 3 12 16 -7 7 -13 7 -17 1z"/>
<path d="M145 410 c-3 -5 -1 -10 4 -10 6 0 11 5 11 10 0 6 -2 10 -4 10 -3 0
-8 -4 -11 -10z"/>
<path d="M86 370 c8 -58 44 -127 86 -167 123 -118 342 -96 432 45 28 42 44 88
28 78 -6 -3 -13 0 -15 6 -4 10 -8 9 -16 -2 -7 -11 -6 -17 4 -22 7 -5 11 -17 8
-28 -6 -23 -19 -26 -26 -7 -4 9 -7 9 -17 0 -10 -9 -10 -15 -1 -26 9 -11 8 -17
-4 -27 -10 -9 -15 -9 -15 -1 0 14 -27 14 -36 0 -3 -6 -1 -14 5 -18 8 -5 5 -14
-10 -27 -19 -16 -21 -16 -16 -2 3 9 3 19 0 22 -10 9 -44 -14 -37 -26 4 -5 0
-14 -7 -19 -21 -13 -29 -11 -23 6 4 11 0 15 -16 15 -15 0 -20 -5 -17 -14 3 -8
-2 -16 -14 -19 -16 -4 -19 -2 -14 14 5 15 1 19 -14 19 -12 0 -21 -7 -21 -15 0
-8 -9 -15 -21 -15 -16 0 -19 4 -14 20 7 22 -13 28 -31 10 -6 -6 -19 -8 -29 -4
-16 7 -17 8 -1 19 15 11 15 14 0 26 -12 10 -17 10 -23 1 -4 -7 -15 -10 -24 -6
-22 8 -22 24 -1 24 14 0 14 3 4 15 -7 9 -21 13 -31 10 -23 -8 -37 15 -16 27
19 10 11 42 -8 34 -13 -5 -35 12 -35 27 0 5 7 7 15 3 11 -4 15 2 15 20 0 15
-4 23 -11 19 -6 -4 -17 1 -25 11 -14 17 -14 15 -8 -26z"/>
<path d="M610 395 c0 -8 9 -24 20 -35 l20 -20 0 29 c0 17 -6 31 -16 35 -22 9
-24 8 -24 -9z"/>
<path d="M313 364 c-22 -34 -3 -54 51 -54 45 0 66 13 66 41 0 23 -12 30 -61
33 -33 3 -43 -1 -56 -20z m37 -13 c0 -14 -18 -23 -30 -16 -6 4 -8 11 -5 16 8
12 35 12 35 0z m61 -6 c0 -5 -12 -11 -26 -13 -18 -2 -25 1 -25 13 0 12 7 15
25 13 14 -2 26 -7 26 -13z"/>
<path d="M378 343 c7 -3 16 -2 19 1 4 3 -2 6 -13 5 -11 0 -14 -3 -6 -6z"/>
<path d="M150 354 c0 -8 5 -12 10 -9 6 4 8 11 5 16 -9 14 -15 11 -15 -7z"/>
<path d="M570 349 c0 -5 5 -7 10 -4 6 3 10 8 10 11 0 2 -4 4 -10 4 -5 0 -10
-5 -10 -11z"/>
<path d="M55 340 c-3 -5 -1 -10 4 -10 6 0 11 5 11 10 0 6 -2 10 -4 10 -3 0 -8
-4 -11 -10z"/>
<path d="M170 315 c0 -5 5 -17 10 -25 5 -8 10 -10 10 -5 0 6 -5 17 -10 25 -5
8 -10 11 -10 5z"/>
<path d="M200 260 c0 -5 5 -10 11 -10 5 0 7 5 4 10 -3 6 -8 10 -11 10 -2 0 -4
-4 -4 -10z"/>
<path d="M305 260 c3 -5 11 -10 16 -10 6 0 7 5 4 10 -3 6 -11 10 -16 10 -6 0
-7 -4 -4 -10z"/>
<path d="M515 250 c-3 -6 1 -7 9 -4 18 7 21 14 7 14 -6 0 -13 -4 -16 -10z"/>
<path d="M245 220 c3 -5 11 -10 16 -10 6 0 7 5 4 10 -3 6 -11 10 -16 10 -6 0
-7 -4 -4 -10z"/>
<path d="M468 213 c7 -3 16 -2 19 1 4 3 -2 6 -13 5 -11 0 -14 -3 -6 -6z"/>
<path d="M300 200 c0 -5 5 -10 11 -10 5 0 7 5 4 10 -3 6 -8 10 -11 10 -2 0 -4
-4 -4 -10z"/>
<path d="M136 192 c-3 -6 -1 -14 5 -17 14 -9 20 -2 10 14 -6 8 -11 9 -15 3z"/>
<path d="M356 192 c-3 -5 1 -9 9 -9 8 0 12 4 9 9 -3 4 -7 8 -9 8 -2 0 -6 -4
-9 -8z"/>
<path d="M418 193 c7 -3 16 -2 19 1 4 3 -2 6 -13 5 -11 0 -14 -3 -6 -6z"/>
<path d="M115 150 c10 -11 20 -20 23 -20 3 0 -3 9 -13 20 -10 11 -20 20 -23
20 -3 0 3 -9 13 -20z"/>
<path d="M614 148 l-19 -23 23 19 c21 18 27 26 19 26 -2 0 -12 -10 -23 -22z"/>
<path d="M546 148 c3 -5 10 -6 15 -3 13 9 11 12 -6 12 -8 0 -12 -4 -9 -9z"/>
<path d="M200 142 c0 -4 9 -13 20 -20 11 -7 20 -9 20 -4 0 4 -9 13 -20 20 -11
7 -20 9 -20 4z"/>
<path d="M280 106 c0 -2 7 -7 16 -10 8 -3 12 -2 9 4 -6 10 -25 14 -25 6z"/>
<path d="M398 93 c7 -3 16 -2 19 1 4 3 -2 6 -13 5 -11 0 -14 -3 -6 -6z"/>
<path d="M353 43 c9 -2 23 -2 30 0 6 3 -1 5 -18 5 -16 0 -22 -2 -12 -5z"/>
</g>
</svg>
